<svg xmlns="http://www.w3.org/2000/svg" viewBox="0 0 5161.775000000001 1058.55" width="5161.775000000001" height="1058.55" style="--bg:#1a1b26;--fg:#a9b1d6;--line:#3d59a1;--accent:#7aa2f7;--muted:#565f89;background:var(--bg)">
<style>
  @import url('https://fonts.googleapis.com/css2?family=Inter:wght@400;500;600;700&amp;display=swap');
  text { font-family: 'Inter', system-ui, sans-serif; }
  svg {
    /* Derived from --bg and --fg (overridable via --line, --accent, etc.) */
    --_text:          var(--fg);
    --_text-sec:      var(--muted, color-mix(in srgb, var(--fg) 60%, var(--bg)));
    --_text-muted:    var(--muted, color-mix(in srgb, var(--fg) 40%, var(--bg)));
    --_text-faint:    color-mix(in srgb, var(--fg) 25%, var(--bg));
    --_line:          var(--line, color-mix(in srgb, var(--fg) 30%, var(--bg)));
    --_arrow:         var(--accent, color-mix(in srgb, var(--fg) 50%, var(--bg)));
    --_node-fill:     var(--surface, color-mix(in srgb, var(--fg) 3%, var(--bg)));
    --_node-stroke:   var(--border, color-mix(in srgb, var(--fg) 20%, var(--bg)));
    --_group-fill:    var(--bg);
    --_group-hdr:     color-mix(in srgb, var(--fg) 5%, var(--bg));
    --_inner-stroke:  color-mix(in srgb, var(--fg) 12%, var(--bg));
    --_key-badge:     color-mix(in srgb, var(--fg) 10%, var(--bg));
  }
</style>
<defs>
  <marker id="arrowhead" markerWidth="8" markerHeight="4.8" refX="8" refY="2.4" orient="auto">
    <polygon points="0 0, 8 2.4, 0 4.8" fill="var(--_arrow)" />
  </marker>
  <marker id="arrowhead-start" markerWidth="8" markerHeight="4.8" refX="0" refY="2.4" orient="auto-start-reverse">
    <polygon points="8 0, 0 2.4, 8 4.8" fill="var(--_arrow)" />
  </marker>
</defs>
<rect x="40" y="40" width="1710.8999999999999" height="152" rx="0" ry="0" fill="var(--_group-fill)" stroke="var(--_node-stroke)" stroke-width="1" />
<rect x="40" y="40" width="1710.8999999999999" height="28" rx="0" ry="0" fill="var(--_group-hdr)" stroke="var(--_node-stroke)" stroke-width="1" />
<text x="52" y="54" dy="0.35em" font-size="12" font-weight="600" fill="var(--_text-sec)">&quot;Custom Hooks&quot;</text>
<rect x="1360.3" y="276" width="1047.1999999999998" height="152" rx="0" ry="0" fill="var(--_group-fill)" stroke="var(--_node-stroke)" stroke-width="1" />
<rect x="1360.3" y="276" width="1047.1999999999998" height="28" rx="0" ry="0" fill="var(--_group-hdr)" stroke="var(--_node-stroke)" stroke-width="1" />
<text x="1372.3" y="290" dy="0.35em" font-size="12" font-weight="600" fill="var(--_text-sec)">&quot;React Contexts&quot;</text>
<rect x="1886.0749999999998" y="496" width="3170.3250000000007" height="309.54999999999995" rx="0" ry="0" fill="var(--_group-fill)" stroke="var(--_node-stroke)" stroke-width="1" />
<rect x="1886.0749999999998" y="496" width="3170.3250000000007" height="28" rx="0" ry="0" fill="var(--_group-hdr)" stroke="var(--_node-stroke)" stroke-width="1" />
<text x="1898.0749999999998" y="510" dy="0.35em" font-size="12" font-weight="600" fill="var(--_text-sec)">&quot;FullScreenExplore · 3-Panel Grid&quot;</text>
<rect x="1906.0750000000003" y="532" width="796.95" height="253.54999999999995" rx="0" ry="0" fill="var(--_group-fill)" stroke="var(--_node-stroke)" stroke-width="1" />
<rect x="1906.0750000000003" y="532" width="796.95" height="28" rx="0" ry="0" fill="var(--_group-hdr)" stroke="var(--_node-stroke)" stroke-width="1" />
<text x="1918.0750000000003" y="546" dy="0.35em" font-size="12" font-weight="600" fill="var(--_text-sec)">&quot;Left Panel&quot;</text>
<rect x="2723.0250000000005" y="532" width="985.9000000000001" height="253.54999999999995" rx="0" ry="0" fill="var(--_group-fill)" stroke="var(--_node-stroke)" stroke-width="1" />
<rect x="2723.0250000000005" y="532" width="985.9000000000001" height="28" rx="0" ry="0" fill="var(--_group-hdr)" stroke="var(--_node-stroke)" stroke-width="1" />
<text x="2735.0250000000005" y="546" dy="0.35em" font-size="12" font-weight="600" fill="var(--_text-sec)">&quot;Center Panel&quot;</text>
<rect x="3877.675" y="532" width="1158.725" height="253.54999999999995" rx="0" ry="0" fill="var(--_group-fill)" stroke="var(--_node-stroke)" stroke-width="1" />
<rect x="3877.675" y="532" width="1158.725" height="28" rx="0" ry="0" fill="var(--_group-hdr)" stroke="var(--_node-stroke)" stroke-width="1" />
<text x="3889.675" y="546" dy="0.35em" font-size="12" font-weight="600" fill="var(--_text-sec)">&quot;Right Panel · Sidebar&quot;</text>
<polyline points="1630.675,152 1630.675,352" fill="none" stroke="var(--_line)" stroke-width="0.75" marker-end="url(#arrowhead)" />
<polyline points="2144.2749999999996,388 2144.2749999999996,658.775" fill="none" stroke="var(--_line)" stroke-width="0.75" marker-end="url(#arrowhead)" />
<polyline points="3261.7250000000004,694.775 3261.7250000000004,785.55 2763.0250000000005,785.55 2763.0250000000005,982.55" fill="none" stroke="var(--_line)" stroke-width="0.75" marker-end="url(#arrowhead)" />
<polyline points="3261.7250000000004,694.775 3261.7250000000004,785.55 3119.3250000000007,785.55 3119.3250000000007,982.55" fill="none" stroke="var(--_line)" stroke-width="0.75" marker-end="url(#arrowhead)" />
<polyline points="3261.7250000000004,694.775 3261.7250000000004,785.55 3404.125,785.55 3404.125,982.55" fill="none" stroke="var(--_line)" stroke-width="0.75" marker-end="url(#arrowhead)" />
<polyline points="3261.7250000000004,694.775 3261.7250000000004,785.55 3688.925,785.55 3688.925,982.55" fill="none" stroke="var(--_line)" stroke-width="0.75" marker-end="url(#arrowhead)" />
<polyline points="4415.15975308642,691.0097530864198 4415.15975308642,785.55 3920.1000000000004,785.55 3920.1000000000004,982.55" fill="none" stroke="var(--_line)" stroke-width="0.75" marker-end="url(#arrowhead)" />
<polyline points="4422.518248266995,698.3682482669947 4422.518248266995,785.55 4151.275000000001,785.55 4151.275000000001,982.55" fill="none" stroke="var(--_line)" stroke-width="0.75" marker-end="url(#arrowhead)" />
<polyline points="4489.700000000001,765.55 4489.700000000001,982.55" fill="none" stroke="var(--_line)" stroke-width="0.75" marker-end="url(#arrowhead)" />
<polyline points="4554.377425291659,700.8725747083412 4554.377425291659,785.55 4781.650000000001,785.55 4781.650000000001,982.55" fill="none" stroke="var(--_line)" stroke-width="0.75" marker-end="url(#arrowhead)" />
<polyline points="4563.27927927928,691.9707207207207 4563.27927927928,785.55 5016.400000000001,785.55 5016.400000000001,982.55" fill="none" stroke="var(--_line)" stroke-width="0.75" marker-end="url(#arrowhead)" />
<rect x="3880.6400000000003" y="860.55" width="78.92" height="27" rx="4" ry="4" fill="var(--bg)" stroke="var(--_inner-stroke)" stroke-width="0.5" />
<text x="3920.1000000000004" y="874.05" text-anchor="middle" dy="0.35em" font-size="11" font-weight="400" fill="var(--_text-muted)">&quot;collapsed&quot;</text>
<rect x="4120.395" y="860.55" width="61.760000000000005" height="27" rx="4" ry="4" fill="var(--bg)" stroke="var(--_inner-stroke)" stroke-width="0.5" />
<text x="4151.275000000001" y="874.05" text-anchor="middle" dy="0.35em" font-size="11" font-weight="400" fill="var(--_text-muted)">&quot;normal&quot;</text>
<rect x="4453.1" y="860.55" width="73.2" height="27" rx="4" ry="4" fill="var(--bg)" stroke="var(--_inner-stroke)" stroke-width="0.5" />
<text x="4489.700000000001" y="874.05" text-anchor="middle" dy="0.35em" font-size="11" font-weight="400" fill="var(--_text-muted)">&quot;expanded&quot;</text>
<rect x="4750.77" y="860.55" width="61.760000000000005" height="27" rx="4" ry="4" fill="var(--bg)" stroke="var(--_inner-stroke)" stroke-width="0.5" />
<text x="4781.650000000001" y="874.05" text-anchor="middle" dy="0.35em" font-size="11" font-weight="400" fill="var(--_text-muted)">&quot;thread&quot;</text>
<rect x="4985.52" y="860.55" width="61.760000000000005" height="27" rx="4" ry="4" fill="var(--bg)" stroke="var(--_inner-stroke)" stroke-width="0.5" />
<text x="5016.400000000001" y="874.05" text-anchor="middle" dy="0.35em" font-size="11" font-weight="400" fill="var(--_text-muted)">&quot;quotes&quot;</text>
<rect x="2582.5750000000007" y="982.55" width="360.90000000000003" height="36" rx="0" ry="0" fill="var(--_node-fill)" stroke="var(--_node-stroke)" stroke-width="0.75" />
<rect x="2967.475000000001" y="982.55" width="303.70000000000005" height="36" rx="0" ry="0" fill="var(--_node-fill)" stroke="var(--_node-stroke)" stroke-width="0.75" />
<rect x="3295.175" y="982.55" width="217.9" height="36" rx="0" ry="0" fill="var(--_node-fill)" stroke="var(--_node-stroke)" stroke-width="0.75" />
<rect x="3537.0750000000003" y="982.55" width="303.70000000000005" height="36" rx="0" ry="0" fill="var(--_node-fill)" stroke="var(--_node-stroke)" stroke-width="0.75" />
<rect x="3864.7750000000005" y="982.55" width="110.65" height="36" rx="0" ry="0" fill="var(--_node-fill)" stroke="var(--_node-stroke)" stroke-width="0.75" />
<rect x="3999.4250000000006" y="982.55" width="303.70000000000005" height="36" rx="0" ry="0" fill="var(--_node-fill)" stroke="var(--_node-stroke)" stroke-width="0.75" />
<rect x="4327.125000000001" y="982.55" width="325.15000000000003" height="36" rx="0" ry="0" fill="var(--_node-fill)" stroke="var(--_node-stroke)" stroke-width="0.75" />
<rect x="4676.275000000001" y="982.55" width="210.75000000000003" height="36" rx="0" ry="0" fill="var(--_node-fill)" stroke="var(--_node-stroke)" stroke-width="0.75" />
<rect x="4911.025000000001" y="982.55" width="210.75000000000003" height="36" rx="0" ry="0" fill="var(--_node-fill)" stroke="var(--_node-stroke)" stroke-width="0.75" />
<rect x="62.00000000000013" y="116" width="160.70000000000002" height="36" rx="0" ry="0" fill="var(--_node-fill)" stroke="var(--_node-stroke)" stroke-width="0.75" />
<rect x="246.70000000000013" y="116" width="225.05" height="36" rx="0" ry="0" fill="var(--_node-fill)" stroke="var(--_node-stroke)" stroke-width="0.75" />
<rect x="495.7500000000001" y="116" width="160.70000000000002" height="36" rx="0" ry="0" fill="var(--_node-fill)" stroke="var(--_node-stroke)" stroke-width="0.75" />
<rect x="680.4500000000002" y="116" width="153.55" height="36" rx="0" ry="0" fill="var(--_node-fill)" stroke="var(--_node-stroke)" stroke-width="0.75" />
<rect x="858.0000000000001" y="116" width="153.55" height="36" rx="0" ry="0" fill="var(--_node-fill)" stroke="var(--_node-stroke)" stroke-width="0.75" />
<rect x="1035.55" y="116" width="153.55" height="36" rx="0" ry="0" fill="var(--_node-fill)" stroke="var(--_node-stroke)" stroke-width="0.75" />
<rect x="1213.1000000000001" y="116" width="132.10000000000002" height="36" rx="0" ry="0" fill="var(--_node-fill)" stroke="var(--_node-stroke)" stroke-width="0.75" />
<rect x="1369.2" y="116" width="139.25" height="36" rx="0" ry="0" fill="var(--_node-fill)" stroke="var(--_node-stroke)" stroke-width="0.75" />
<rect x="1532.45" y="116" width="196.45000000000002" height="36" rx="0" ry="0" fill="var(--_node-fill)" stroke="var(--_node-stroke)" stroke-width="0.75" />
<rect x="1382.3" y="352" width="496.75000000000006" height="36" rx="0" ry="0" fill="var(--_node-fill)" stroke="var(--_node-stroke)" stroke-width="0.75" />
<rect x="1903.0499999999997" y="352" width="482.45000000000005" height="36" rx="0" ry="0" fill="var(--_node-fill)" stroke="var(--_node-stroke)" stroke-width="0.75" />
<rect x="1928.0749999999996" y="658.775" width="432.40000000000003" height="36" rx="0" ry="0" fill="var(--_node-fill)" stroke="var(--_node-stroke)" stroke-width="0.75" />
<rect x="2384.475" y="658.775" width="296.55" height="36" rx="0" ry="0" fill="var(--_node-fill)" stroke="var(--_node-stroke)" stroke-width="0.75" />
<rect x="3177.8" y="658.775" width="167.85000000000002" height="36" rx="0" ry="0" fill="var(--_node-fill)" stroke="var(--_node-stroke)" stroke-width="0.75" />
<polygon points="4489.700000000001,588 4578.475,676.775 4489.700000000001,765.55 4400.925000000001,676.775" fill="var(--_node-fill)" stroke="var(--_node-stroke)" stroke-width="0.75" />
<text x="2763.0250000000005" y="1000.55" text-anchor="middle" dy="0.35em" font-size="13" font-weight="500" fill="var(--_text)">&quot;DeckGLScatter\nScatterplotLayer\n+ TextLayer&quot;</text>
<text x="3119.3250000000007" y="1000.55" text-anchor="middle" dy="0.35em" font-size="13" font-weight="500" fill="var(--_text)">&quot;HullPlot\nConvex cluster\nboundaries&quot;</text>
<text x="3404.125" y="1000.55" text-anchor="middle" dy="0.35em" font-size="13" font-weight="500" fill="var(--_text)">&quot;HoverCard\nPoint preview&quot;</text>
<text x="3688.925" y="1000.55" text-anchor="middle" dy="0.35em" font-size="13" font-weight="500" fill="var(--_text)">&quot;ConnectionBadges\nThread/reply edges&quot;</text>
<text x="3920.1000000000004" y="1000.55" text-anchor="middle" dy="0.35em" font-size="13" font-weight="500" fill="var(--_text)">&quot;Minimized&quot;</text>
<text x="4151.275000000001" y="1000.55" text-anchor="middle" dy="0.35em" font-size="13" font-weight="500" fill="var(--_text)">&quot;TweetFeed\nFiltered cards\npaginated&quot;</text>
<text x="4489.700000000001" y="1000.55" text-anchor="middle" dy="0.35em" font-size="13" font-weight="500" fill="var(--_text)">&quot;FeedCarousel\nMulti-column\nper-cluster&quot;</text>
<text x="4781.650000000001" y="1000.55" text-anchor="middle" dy="0.35em" font-size="13" font-weight="500" fill="var(--_text)">&quot;ThreadView\nReply chain&quot;</text>
<text x="5016.400000000001" y="1000.55" text-anchor="middle" dy="0.35em" font-size="13" font-weight="500" fill="var(--_text)">&quot;QuoteView\nQuote tweets&quot;</text>
<text x="142.35000000000014" y="134" text-anchor="middle" dy="0.35em" font-size="13" font-weight="500" fill="var(--_text)">&quot;useClusterFilter&quot;</text>
<text x="359.22500000000014" y="134" text-anchor="middle" dy="0.35em" font-size="13" font-weight="500" fill="var(--_text)">&quot;useNearestNeighborsSearch&quot;</text>
<text x="576.1000000000001" y="134" text-anchor="middle" dy="0.35em" font-size="13" font-weight="500" fill="var(--_text)">&quot;useKeywordSearch&quot;</text>
<text x="757.2250000000001" y="134" text-anchor="middle" dy="0.35em" font-size="13" font-weight="500" fill="var(--_text)">&quot;useColumnFilter&quot;</text>
<text x="934.7750000000001" y="134" text-anchor="middle" dy="0.35em" font-size="13" font-weight="500" fill="var(--_text)">&quot;useCarouselData&quot;</text>
<text x="1112.325" y="134" text-anchor="middle" dy="0.35em" font-size="13" font-weight="500" fill="var(--_text)">&quot;useTimelineData&quot;</text>
<text x="1279.15" y="134" text-anchor="middle" dy="0.35em" font-size="13" font-weight="500" fill="var(--_text)">&quot;useNodeStats&quot;</text>
<text x="1438.825" y="134" text-anchor="middle" dy="0.35em" font-size="13" font-weight="500" fill="var(--_text)">&quot;useThreadData&quot;</text>
<text x="1630.675" y="134" text-anchor="middle" dy="0.35em" font-size="13" font-weight="500" fill="var(--_text)">&quot;useTopicDirectoryData&quot;</text>
<text x="1630.675" y="370" text-anchor="middle" dy="0.35em" font-size="13" font-weight="500" fill="var(--_text)">&quot;ScopeContext\nscopeRows · clusterMap\nclusterLabels · hierarchy&quot;</text>
<text x="2144.2749999999996" y="370" text-anchor="middle" dy="0.35em" font-size="13" font-weight="500" fill="var(--_text)">&quot;FilterContext\nfilteredIndices · page\nfilterConfig · loading&quot;</text>
<text x="2144.2749999999996" y="676.775" text-anchor="middle" dy="0.35em" font-size="13" font-weight="500" fill="var(--_text)">&quot;TopicTree\nHierarchical clusters\nsorted by engagement&quot;</text>
<text x="2532.75" y="676.775" text-anchor="middle" dy="0.35em" font-size="13" font-weight="500" fill="var(--_text)">&quot;TimelineControls\nDate range filter&quot;</text>
<text x="3261.7250000000004" y="676.775" text-anchor="middle" dy="0.35em" font-size="13" font-weight="500" fill="var(--_text)">&quot;VisualizationPane&quot;</text>
<text x="4489.700000000001" y="676.775" text-anchor="middle" dy="0.35em" font-size="13" font-weight="500" fill="var(--_text)">&quot;useSidebarState&quot;</text>
</svg>