<svg xmlns="http://www.w3.org/2000/svg" viewBox="0 0 1508.0124999999998 1525" width="1508.0124999999998" height="1525" style="--bg:#1a1b26;--fg:#a9b1d6;--line:#3d59a1;--accent:#7aa2f7;--muted:#565f89;background:var(--bg)">
<style>
  @import url('https://fonts.googleapis.com/css2?family=Inter:wght@400;500;600;700&amp;display=swap');
  text { font-family: 'Inter', system-ui, sans-serif; }
  svg {
    /* Derived from --bg and --fg (overridable via --line, --accent, etc.) */
    --_text:          var(--fg);
    --_text-sec:      var(--muted, color-mix(in srgb, var(--fg) 60%, var(--bg)));
    --_text-muted:    var(--muted, color-mix(in srgb, var(--fg) 40%, var(--bg)));
    --_text-faint:    color-mix(in srgb, var(--fg) 25%, var(--bg));
    --_line:          var(--line, color-mix(in srgb, var(--fg) 30%, var(--bg)));
    --_arrow:         var(--accent, color-mix(in srgb, var(--fg) 50%, var(--bg)));
    --_node-fill:     var(--surface, color-mix(in srgb, var(--fg) 3%, var(--bg)));
    --_node-stroke:   var(--border, color-mix(in srgb, var(--fg) 20%, var(--bg)));
    --_group-fill:    var(--bg);
    --_group-hdr:     color-mix(in srgb, var(--fg) 5%, var(--bg));
    --_inner-stroke:  color-mix(in srgb, var(--fg) 12%, var(--bg));
    --_key-badge:     color-mix(in srgb, var(--fg) 10%, var(--bg));
  }
</style>
<defs>
  <marker id="arrowhead" markerWidth="8" markerHeight="4.8" refX="8" refY="2.4" orient="auto">
    <polygon points="0 0, 8 2.4, 0 4.8" fill="var(--_arrow)" />
  </marker>
  <marker id="arrowhead-start" markerWidth="8" markerHeight="4.8" refX="0" refY="2.4" orient="auto-start-reverse">
    <polygon points="8 0, 0 2.4, 8 4.8" fill="var(--_arrow)" />
  </marker>
</defs>
<rect x="792.8124999999999" y="40" width="645.6000000000001" height="112" rx="0" ry="0" fill="var(--_group-fill)" stroke="var(--_node-stroke)" stroke-width="1" />
<rect x="792.8124999999999" y="40" width="645.6000000000001" height="28" rx="0" ry="0" fill="var(--_group-hdr)" stroke="var(--_node-stroke)" stroke-width="1" />
<text x="804.8124999999999" y="54" dy="0.35em" font-size="12" font-weight="600" fill="var(--_text-sec)">&quot;0 · Ingest&quot;</text>
<rect x="57.27499999999998" y="213" width="712.3499999999999" height="285" rx="0" ry="0" fill="var(--_group-fill)" stroke="var(--_node-stroke)" stroke-width="1" />
<rect x="57.27499999999998" y="213" width="712.3499999999999" height="28" rx="0" ry="0" fill="var(--_group-hdr)" stroke="var(--_node-stroke)" stroke-width="1" />
<text x="69.27499999999998" y="227" dy="0.35em" font-size="12" font-weight="600" fill="var(--_text-sec)">&quot;1 · Embed&quot;</text>
<rect x="40" y="559" width="539.55" height="112" rx="0" ry="0" fill="var(--_group-fill)" stroke="var(--_node-stroke)" stroke-width="1" />
<rect x="40" y="559" width="539.55" height="28" rx="0" ry="0" fill="var(--_group-hdr)" stroke="var(--_node-stroke)" stroke-width="1" />
<text x="52" y="573" dy="0.35em" font-size="12" font-weight="600" fill="var(--_text-sec)">&quot;2 · UMAP&quot;</text>
<rect x="161.67999999999998" y="732" width="335.5824999999999" height="112" rx="0" ry="0" fill="var(--_group-fill)" stroke="var(--_node-stroke)" stroke-width="1" />
<rect x="161.67999999999998" y="732" width="335.5824999999999" height="28" rx="0" ry="0" fill="var(--_group-hdr)" stroke="var(--_node-stroke)" stroke-width="1" />
<text x="173.67999999999998" y="746" dy="0.35em" font-size="12" font-weight="600" fill="var(--_text-sec)">&quot;3 · Cluster&quot;</text>
<rect x="553.8624999999998" y="732" width="547.9000000000001" height="285" rx="0" ry="0" fill="var(--_group-fill)" stroke="var(--_node-stroke)" stroke-width="1" />
<rect x="553.8624999999998" y="732" width="547.9000000000001" height="28" rx="0" ry="0" fill="var(--_group-hdr)" stroke="var(--_node-stroke)" stroke-width="1" />
<text x="565.8624999999998" y="746" dy="0.35em" font-size="12" font-weight="600" fill="var(--_text-sec)">&quot;4 · Toponymy Label&quot;</text>
<rect x="75.13750000000005" y="1061" width="1070.2" height="112" rx="0" ry="0" fill="var(--_group-fill)" stroke="var(--_node-stroke)" stroke-width="1" />
<rect x="75.13750000000005" y="1061" width="1070.2" height="28" rx="0" ry="0" fill="var(--_group-hdr)" stroke="var(--_node-stroke)" stroke-width="1" />
<text x="87.13750000000005" y="1075" dy="0.35em" font-size="12" font-weight="600" fill="var(--_text-sec)">&quot;5 · Scope&quot;</text>
<rect x="1141.7624999999998" y="386" width="326.25" height="112" rx="0" ry="0" fill="var(--_group-fill)" stroke="var(--_node-stroke)" stroke-width="1" />
<rect x="1141.7624999999998" y="386" width="326.25" height="28" rx="0" ry="0" fill="var(--_group-hdr)" stroke="var(--_node-stroke)" stroke-width="1" />
<text x="1153.7624999999998" y="400" dy="0.35em" font-size="12" font-weight="600" fill="var(--_text-sec)">&quot;5b · Links Graph&quot;</text>
<rect x="457.20499999999987" y="1217" width="871.2575" height="268" rx="0" ry="0" fill="var(--_group-fill)" stroke="var(--_node-stroke)" stroke-width="1" />
<rect x="457.20499999999987" y="1217" width="871.2575" height="28" rx="0" ry="0" fill="var(--_group-hdr)" stroke="var(--_node-stroke)" stroke-width="1" />
<text x="469.20499999999987" y="1231" dy="0.35em" font-size="12" font-weight="600" fill="var(--_text-sec)">&quot;6 · Serve + Explore&quot;</text>
<polyline points="934.4875,132 934.4875,287 1012.8125000000001,287" fill="none" stroke="var(--_line)" stroke-width="0.75" marker-end="url(#arrowhead)" />
<polyline points="1151.3624999999997,132 1151.3624999999997,287 1237.8625000000002,287" fill="none" stroke="var(--_line)" stroke-width="0.75" marker-end="url(#arrowhead)" />
<polyline points="1332.4874999999997,132 1332.4874999999997,287 1237.8625000000002,287" fill="none" stroke="var(--_line)" stroke-width="0.75" marker-end="url(#arrowhead)" />
<polyline points="1125.3375,305 1125.3375,325 149.04999999999993,325 149.04999999999993,460 198.69999999999987,460" fill="none" stroke="var(--_line)" stroke-width="0.75" marker-end="url(#arrowhead)" />
<polyline points="413.44999999999993,305 413.44999999999993,460 359.3999999999999,460" fill="none" stroke="var(--_line)" stroke-width="0.75" stroke-dasharray="4 4" marker-end="url(#arrowhead)" />
<polyline points="279.0499999999999,478 279.0499999999999,498 170.95000000000002,498 170.95000000000002,615" fill="none" stroke="var(--_line)" stroke-width="0.75" marker-end="url(#arrowhead)" />
<polyline points="279.0499999999999,478 279.0499999999999,498 430.7249999999999,498 430.7249999999999,615" fill="none" stroke="var(--_line)" stroke-width="0.75" marker-end="url(#arrowhead)" />
<polyline points="170.95000000000002,651 170.95000000000002,671 238.2175,671 238.2175,806 277.0299999999999,806" fill="none" stroke="var(--_line)" stroke-width="0.75" marker-end="url(#arrowhead)" />
<polyline points="430.7249999999999,651 430.7249999999999,806 459.1799999999999,806" fill="none" stroke="var(--_line)" stroke-width="0.75" marker-end="url(#arrowhead)" />
<polyline points="368.1049999999999,824 368.1049999999999,844 430.7249999999999,844 430.7249999999999,864 727.1474999999999,864 727.1474999999999,979 575.8624999999998,979" fill="none" stroke="var(--_line)" stroke-width="0.75" marker-end="url(#arrowhead)" />
<polyline points="877.8624999999998,824 877.8624999999998,979 1079.7624999999998,979" fill="none" stroke="var(--_line)" stroke-width="0.75" stroke-dasharray="4 4" marker-end="url(#arrowhead)" />
<polyline points="170.95000000000002,651 170.95000000000002,671 140.95000000000002,671 140.95000000000002,1135 469.4799999999999,1135" fill="none" stroke="var(--_line)" stroke-width="0.75" marker-end="url(#arrowhead)" />
<polyline points="368.1049999999999,824 368.1049999999999,844 238.2175,844 238.2175,1135 469.4799999999999,1135" fill="none" stroke="var(--_line)" stroke-width="0.75" marker-end="url(#arrowhead)" />
<polyline points="827.8124999999999,997 827.8124999999999,1135 623.0299999999999,1135" fill="none" stroke="var(--_line)" stroke-width="0.75" marker-end="url(#arrowhead)" />
<polyline points="1125.3375,305 1125.3375,325 1121.7624999999998,325 1121.7624999999998,1135 623.0299999999999,1135" fill="none" stroke="var(--_line)" stroke-width="0.75" marker-end="url(#arrowhead)" />
<polyline points="1125.3375,305 1125.3375,325 1304.8874999999998,325 1304.8874999999998,442" fill="none" stroke="var(--_line)" stroke-width="0.75" marker-end="url(#arrowhead)" />
<polyline points="546.2549999999999,1153 546.2549999999999,1291 668.6924999999999,1291" fill="none" stroke="var(--_line)" stroke-width="0.75" marker-end="url(#arrowhead)" />
<polyline points="1304.8874999999998,478 1304.8874999999998,1291 900.8924999999999,1291" fill="none" stroke="var(--_line)" stroke-width="0.75" marker-end="url(#arrowhead)" />
<polyline points="784.7924999999999,1309 784.7924999999999,1429" fill="none" stroke="var(--_line)" stroke-width="0.75" marker-end="url(#arrowhead)" />
<rect x="895.0274999999999" y="187" width="78.92" height="27" rx="4" ry="4" fill="var(--bg)" stroke="var(--_inner-stroke)" stroke-width="0.5" />
<text x="934.4875" y="200.5" text-anchor="middle" dy="0.35em" font-size="11" font-weight="400" fill="var(--_text-muted)">&quot;ls-ingest&quot;</text>
<rect x="1097.6024999999997" y="187" width="107.52000000000001" height="27" rx="4" ry="4" fill="var(--bg)" stroke="var(--_inner-stroke)" stroke-width="0.5" />
<text x="1151.3624999999997" y="200.5" text-anchor="middle" dy="0.35em" font-size="11" font-weight="400" fill="var(--_text-muted)">&quot;twitter_import&quot;</text>
<rect x="1278.7274999999997" y="187" width="107.52000000000001" height="27" rx="4" ry="4" fill="var(--bg)" stroke="var(--_inner-stroke)" stroke-width="0.5" />
<text x="1332.4874999999997" y="200.5" text-anchor="middle" dy="0.35em" font-size="11" font-weight="400" fill="var(--_text-muted)">&quot;twitter_import&quot;</text>
<rect x="112.44999999999993" y="360" width="73.2" height="27" rx="4" ry="4" fill="var(--bg)" stroke="var(--_inner-stroke)" stroke-width="0.5" />
<text x="149.04999999999993" y="373.5" text-anchor="middle" dy="0.35em" font-size="11" font-weight="400" fill="var(--_text-muted)">&quot;ls-embed&quot;</text>
<rect x="108.61000000000001" y="533" width="124.68" height="27" rx="4" ry="4" fill="var(--bg)" stroke="var(--_inner-stroke)" stroke-width="0.5" />
<text x="170.95000000000002" y="546.5" text-anchor="middle" dy="0.35em" font-size="11" font-weight="400" fill="var(--_text-muted)">&quot;--purpose display&quot;</text>
<rect x="368.3849999999999" y="533" width="124.68" height="27" rx="4" ry="4" fill="var(--bg)" stroke="var(--_inner-stroke)" stroke-width="0.5" />
<text x="430.7249999999999" y="546.5" text-anchor="middle" dy="0.35em" font-size="11" font-weight="400" fill="var(--_text-muted)">&quot;--purpose cluster&quot;</text>
<rect x="195.8975" y="706" width="84.64" height="27" rx="4" ry="4" fill="var(--bg)" stroke="var(--_inner-stroke)" stroke-width="0.5" />
<text x="238.2175" y="719.5" text-anchor="middle" dy="0.35em" font-size="11" font-weight="400" fill="var(--_text-muted)">&quot;ls-cluster&quot;</text>
<rect x="359.8049999999999" y="706" width="141.84" height="27" rx="4" ry="4" fill="var(--bg)" stroke="var(--_inner-stroke)" stroke-width="0.5" />
<text x="430.7249999999999" y="719.5" text-anchor="middle" dy="0.35em" font-size="11" font-weight="400" fill="var(--_text-muted)">&quot;--clustering_umap_id&quot;</text>
<rect x="670.5274999999999" y="879" width="113.24000000000001" height="27" rx="4" ry="4" fill="var(--bg)" stroke="var(--_inner-stroke)" stroke-width="0.5" />
<text x="727.1474999999999" y="892.5" text-anchor="middle" dy="0.35em" font-size="11" font-weight="400" fill="var(--_text-muted)">&quot;toponymy_labels&quot;</text>
<rect x="1242.5475" y="360" width="124.68" height="27" rx="4" ry="4" fill="var(--bg)" stroke="var(--_inner-stroke)" stroke-width="0.5" />
<text x="1304.8874999999998" y="373.5" text-anchor="middle" dy="0.35em" font-size="11" font-weight="400" fill="var(--_text-muted)">&quot;build_links_graph&quot;</text>
<rect x="1012.8125000000001" y="269" width="225.05" height="36" rx="0" ry="0" fill="var(--_node-fill)" stroke="var(--_node-stroke)" stroke-width="0.75" />
<rect x="814.8125" y="96" width="239.35000000000002" height="36" rx="0" ry="0" fill="var(--_node-fill)" stroke="var(--_node-stroke)" stroke-width="0.75" />
<rect x="1078.1624999999997" y="96" width="146.4" height="36" rx="0" ry="0" fill="var(--_node-fill)" stroke="var(--_node-stroke)" stroke-width="0.75" />
<rect x="1248.5624999999998" y="96" width="167.85000000000002" height="36" rx="0" ry="0" fill="var(--_node-fill)" stroke="var(--_node-stroke)" stroke-width="0.75" />
<rect x="79.27499999999992" y="269" width="668.35" height="36" rx="0" ry="0" fill="var(--_node-fill)" stroke="var(--_node-stroke)" stroke-width="0.75" />
<rect x="198.69999999999987" y="442" width="160.70000000000002" height="36" rx="0" ry="0" fill="var(--_node-fill)" stroke="var(--_node-stroke)" stroke-width="0.75" />
<rect x="62.000000000000014" y="615" width="217.9" height="36" rx="0" ry="0" fill="var(--_node-fill)" stroke="var(--_node-stroke)" stroke-width="0.75" />
<rect x="303.8999999999999" y="615" width="253.65" height="36" rx="0" ry="0" fill="var(--_node-fill)" stroke="var(--_node-stroke)" stroke-width="0.75" />
<rect x="277.0299999999999" y="788" width="182.15" height="36" rx="0" ry="0" fill="var(--_node-fill)" stroke="var(--_node-stroke)" stroke-width="0.75" />
<rect x="726.0124999999998" y="788" width="303.70000000000005" height="36" rx="0" ry="0" fill="var(--_node-fill)" stroke="var(--_node-stroke)" stroke-width="0.75" />
<rect x="575.8624999999998" y="961" width="503.90000000000003" height="36" rx="0" ry="0" fill="var(--_node-fill)" stroke="var(--_node-stroke)" stroke-width="0.75" />
<rect x="469.4799999999999" y="1117" width="153.55" height="36" rx="0" ry="0" fill="var(--_node-fill)" stroke="var(--_node-stroke)" stroke-width="0.75" />
<rect x="1163.7624999999998" y="442" width="282.25" height="36" rx="0" ry="0" fill="var(--_node-fill)" stroke="var(--_node-stroke)" stroke-width="0.75" />
<rect x="668.6924999999999" y="1273" width="232.20000000000002" height="36" rx="0" ry="0" fill="var(--_node-fill)" stroke="var(--_node-stroke)" stroke-width="0.75" />
<rect x="708.0174999999999" y="1429" width="153.55" height="36" rx="0" ry="0" fill="var(--_node-fill)" stroke="var(--_node-stroke)" stroke-width="0.75" />
<text x="1125.3375" y="287" text-anchor="middle" dy="0.35em" font-size="13" font-weight="500" fill="var(--_text)">&quot;input.parquet + meta.json&quot;</text>
<text x="934.4875" y="114" text-anchor="middle" dy="0.35em" font-size="13" font-weight="500" fill="var(--_text)">&quot;CSV / Parquet / JSON / XLSX&quot;</text>
<text x="1151.3624999999997" y="114" text-anchor="middle" dy="0.35em" font-size="13" font-weight="500" fill="var(--_text)">&quot;X Archive .zip&quot;</text>
<text x="1332.4874999999997" y="114" text-anchor="middle" dy="0.35em" font-size="13" font-weight="500" fill="var(--_text)">&quot;Community Archive&quot;</text>
<text x="413.44999999999993" y="287" text-anchor="middle" dy="0.35em" font-size="13" font-weight="500" fill="var(--_text)">&quot;Voyage Context 3 · Voyage 4 Lite\nOpenAI · HF Transformers\nCohere · Mistral · Together&quot;</text>
<text x="279.0499999999999" y="460" text-anchor="middle" dy="0.35em" font-size="13" font-weight="500" fill="var(--_text)">&quot;embedding-NNN.h5&quot;</text>
<text x="170.95000000000002" y="633" text-anchor="middle" dy="0.35em" font-size="13" font-weight="500" fill="var(--_text)">&quot;umap-NNN.parquet\n2D x,y&quot;</text>
<text x="430.7249999999999" y="633" text-anchor="middle" dy="0.35em" font-size="13" font-weight="500" fill="var(--_text)">&quot;umap-NNN.parquet\nkD manifold&quot;</text>
<text x="368.1049999999999" y="806" text-anchor="middle" dy="0.35em" font-size="13" font-weight="500" fill="var(--_text)">&quot;cluster-NNN.parquet&quot;</text>
<text x="877.8624999999998" y="806" text-anchor="middle" dy="0.35em" font-size="13" font-weight="500" fill="var(--_text)">&quot;GPT-5 mini · Claude\nGemini · Cohere&quot;</text>
<text x="827.8124999999999" y="979" text-anchor="middle" dy="0.35em" font-size="13" font-weight="500" fill="var(--_text)">&quot;Hierarchical labels\naudit + sibling context\nadaptive exemplars&quot;</text>
<text x="546.2549999999999" y="1135" text-anchor="middle" dy="0.35em" font-size="13" font-weight="500" fill="var(--_text)">&quot;scopes-NNN.json&quot;</text>
<text x="1304.8874999999998" y="460" text-anchor="middle" dy="0.35em" font-size="13" font-weight="500" fill="var(--_text)">&quot;edges.parquet\nnode_stats.parquet&quot;</text>
<text x="784.7924999999999" y="1291" text-anchor="middle" dy="0.35em" font-size="13" font-weight="500" fill="var(--_text)">&quot;Hono TypeScript API\n:3000&quot;</text>
<text x="784.7924999999999" y="1447" text-anchor="middle" dy="0.35em" font-size="13" font-weight="500" fill="var(--_text)">&quot;React + Deck.GL&quot;</text>
</svg>